Coordinates
version=1
nRows=14
nColumns=46
inDegrees=yes

Units are S.I. units (second, meters, Newtons, ...)
Angles are in degrees.

endheader
time	pelvis_tilt	pelvis_list	pelvis_rotation	pelvis_tx	pelvis_ty	pelvis_tz	bb_angle	bb_tx	bb_ty	bb_tz	hip_flexion_r	hip_adduction_r	hip_rotation_r	knee_angle_r	knee_angle_r_beta	ankle_angle_r	subtalar_angle_r	mtp_angle_r	crank_angle_r	hip_flexion_l	hip_adduction_l	hip_rotation_l	knee_angle_l	knee_angle_l_beta	ankle_angle_l	subtalar_angle_l	mtp_angle_l	crank_angle_l	lumbar_extension	lumbar_bending	lumbar_rotation	arm_flex_r	arm_add_r	arm_rot_r	elbow_flex_r	pro_sup_r	wrist_flex_r	wrist_dev_r	arm_flex_l	arm_add_l	arm_rot_l	elbow_flex_l	pro_sup_l	wrist_flex_l	wrist_dev_l
      2.50000000	    -19.00022873	      1.77486178	      5.09232091	      0.32391018	      1.11016814	     -0.26052997	      0.00000000	      0.50000000	      0.00000000	      0.25000000	     36.22582868	     -8.11903859	     -7.41998657	     36.21267506	      0.63203041	     -9.38419858	    -10.67812401	      0.00000000	      0.00000000	     72.36727926	      2.58958900	      6.72974626	    113.93701897	      1.98857612	     -0.35918525	     -9.01142794	      0.00000000	      0.00000000	    -56.61818655	      2.95602388	     -6.85423858	     54.20140464	    -12.55705191	     25.03863132	     68.56772007	     47.22694364	      0.00000000	      0.00000000	     51.91465549	    -22.49962221	     21.46539941	     71.64909047	     47.68990605	      0.00000000	      0.00000000
      2.50500000	    -19.09235613	      1.89854509	      5.22064337	      0.32400645	      1.11092536	     -0.26117796	      0.00000000	      0.50000000	      0.00000000	      0.25000000	     35.63284997	     -8.39478193	     -7.84745381	     35.43056468	      0.61838001	    -10.26701361	    -10.24145782	      0.00000000	      0.00000000	     73.04461971	      2.75711921	      6.54189823	    114.23919229	      1.99385004	      0.07738308	     -9.03678189	      0.00000000	      0.00000000	    -56.52089192	      2.69796362	     -7.06444670	     54.08625987	    -12.62608746	     24.90440756	     68.27949199	     47.18473814	      0.00000000	      0.00000000	     52.07019774	    -22.35774613	     21.64254859	     71.61193336	     47.71013247	      0.00000000	      0.00000000
      2.51000000	    -19.18318988	      2.00643676	      5.36453987	      0.32408243	      1.11175751	     -0.26181659	      0.00000000	      0.50000000	      0.00000000	      0.25000000	     35.03271943	     -8.65558426	     -8.30986949	     34.66456575	      0.60501081	    -11.08388057	     -9.85275408	      0.00000000	      0.00000000	     73.72857654	      2.95002252	      6.38217069	    114.50988224	      1.99857447	      0.48657921	     -9.01109992	      0.00000000	      0.00000000	    -56.44052302	      2.44014703	     -7.27861309	     54.01681141	    -12.70065083	     24.74753494	     67.99988510	     47.13986174	      0.00000000	      0.00000000	     52.27577192	    -22.22333305	     21.82053188	     71.56773406	     47.72756560	      0.00000000	      0.00000000
      2.51500000	    -19.28342815	      2.09275118	      5.50772778	      0.32411172	      1.11263196	     -0.26242840	      0.00000000	      0.50000000	      0.00000000	      0.25000000	     34.45492921	     -8.90263665	     -8.81414479	     33.91221676	      0.59187984	    -11.91079075	     -9.44466991	      0.00000000	      0.00000000	     74.40876269	      3.06081628	      6.19542769	    114.72237909	      2.00228324	      0.87671454	     -8.96458007	      0.00000000	      0.00000000	    -56.37789022	      2.19906819	     -7.45321847	     53.91739925	    -12.77060386	     24.60517184	     67.68641774	     47.09085925	      0.00000000	      0.00000000	     52.50167599	    -22.06716489	     22.02787855	     71.50996968	     47.74497218	      0.00000000	      0.00000000
      2.52000000	    -19.25807151	      2.06428760	      5.72837111	      0.32445479	      1.11375442	     -0.26327436	      0.00000000	      0.50000000	      0.00000000	      0.25000000	     33.64198021	     -9.07642207	     -9.51032022	     33.04622446	      0.57676542	    -12.89813749	     -9.15803608	      0.00000000	      0.00000000	     74.92422833	      3.18808356	      6.15875352	    114.91778516	      2.00569372	      1.39261307	     -8.69355000	      0.00000000	      0.00000000	    -56.40640772	      2.10178515	     -7.40992495	     53.88725647	    -12.76483781	     24.01179228	     66.86439982	     46.96433293	      0.00000000	      0.00000000	     52.97406613	    -21.73574586	     22.80336600	     70.94536107	     47.76496799	      0.00000000	      0.00000000
      2.52500000	    -19.52086363	      2.20373560	      5.84448400	      0.32425190	      1.11461507	     -0.26388728	      0.00000000	      0.50000000	      0.00000000	      0.25000000	     33.28916626	     -9.34668747	     -9.85072101	     32.34533772	      0.56453264	    -13.76214260	     -8.64157448	      0.00000000	      0.00000000	     75.76051991	      3.32931356	      5.88729987	    115.02305067	      2.00753095	      1.71626889	     -8.71194106	      0.00000000	      0.00000000	    -56.22666513	      1.79470756	     -7.63458024	     53.82702976	    -12.87721244	     23.89731888	     66.72590995	     46.94647509	      0.00000000	      0.00000000	     53.20963025	    -21.65286440	     22.93618995	     70.92519570	     47.78103714	      0.00000000	      0.00000000
      2.53000000	    -19.74335298	      2.29164982	      5.98841809	      0.32406668	      1.11557598	     -0.26462072	      0.00000000	      0.50000000	      0.00000000	      0.25000000	     32.88777224	     -9.58897017	    -10.28055407	     31.64595585	      0.55232612	    -14.63465042	     -8.21049178	      0.00000000	      0.00000000	     76.52166949	      3.45517586	      5.66366825	    115.06441204	      2.00825284	      2.00890666	     -8.68593459	      0.00000000	      0.00000000	    -56.11637856	      1.54600835	     -7.81284924	     53.76348654	    -13.00966272	     23.73816989	     66.51063077	     46.91331286	      0.00000000	      0.00000000	     53.41161010	    -21.50520293	     23.16129808	     70.91714942	     47.80923857	      0.00000000	      0.00000000
      2.53500000	    -19.84971658	      2.33850361	      6.17377797	      0.32392161	      1.11680894	     -0.26526972	      0.00000000	      0.50000000	      0.00000000	      0.25000000	     32.32490574	     -9.77473647	    -10.78094066	     30.90315606	      0.53936182	    -15.65648137	     -7.98549077	      0.00000000	      0.00000000	     77.12800220	      3.56535268	      5.50642806	    115.06108536	      2.00819478	      2.47123419	     -8.44125625	      0.00000000	      0.00000000	    -56.09362203	      1.30589837	     -7.70846908	     53.64150941	    -13.07087717	     22.89215811	     65.94206949	     46.92148392	      0.00000000	      0.00000000	     54.27398198	    -21.28523464	     24.56604780	     70.05200848	     47.90579027	      0.00000000	      0.00000000
      2.54000000	    -20.15038757	      2.43946061	      6.31630575	      0.32363972	      1.11783722	     -0.26597279	      0.00000000	      0.50000000	      0.00000000	      0.25000000	     32.05349352	    -10.01655557	    -11.14974557	     30.28835511	      0.52863152	    -16.45407071	     -7.59659542	      0.00000000	      0.00000000	     77.91668232	      3.67052273	      5.21040486	    114.96198720	      2.00646519	      2.88620587	     -8.35598653	      0.00000000	      0.00000000	    -55.98078940	      1.04311405	     -7.91982728	     53.66693779	    -13.23364852	     22.80498973	     65.84680883	     46.90950636	      0.00000000	      0.00000000	     54.48747046	    -21.17106536	     24.61668976	     70.19240119	     47.93781486	      0.00000000	      0.00000000
      2.54500000	    -20.43448917	      2.52631958	      6.47735992	      0.32333461	      1.11895764	     -0.26673197	      0.00000000	      0.50000000	      0.00000000	      0.25000000	     31.78229110	    -10.26282027	    -11.55860965	     29.69779341	      0.51832428	    -17.42650623	     -7.21472596	      0.00000000	      0.00000000	     78.64523814	      3.78376928	      4.95161591	    114.81615138	      2.00391988	      3.22601641	     -8.27052598	      0.00000000	      0.00000000	    -55.88856807	      0.82115317	     -8.10278466	     53.69437241	    -13.39069889	     22.69224624	     65.67882901	     46.88387451	      0.00000000	      0.00000000	     54.69686610	    -21.01715349	     24.73727685	     70.36127699	     47.98160716	      0.00000000	      0.00000000
      2.55000000	    -20.70465631	      2.61259309	      6.65606092	      0.32300860	      1.12015790	     -0.26753544	      0.00000000	      0.50000000	      0.00000000	      0.25000000	     31.50603435	    -10.50002769	    -11.93853147	     29.12873556	      0.50839234	    -18.42247400	     -6.94467905	      0.00000000	      0.00000000	     79.31969043	      3.92552733	      4.69274946	    114.60991908	      2.00032044	      3.60074056	     -8.20247898	      0.00000000	      0.00000000	    -55.82870224	      0.62308079	     -8.27972246	     53.75664167	    -13.55442653	     22.53733263	     65.44833116	     46.84554986	      0.00000000	      0.00000000	     54.86815997	    -20.89985585	     24.91051402	     70.47099424	     48.02258889	      0.00000000	      0.00000000
      2.55500000	    -20.98250369	      2.68147604	      6.86030651	      0.32221652	      1.12153851	     -0.26822773	      0.00000000	      0.50000000	      0.00000000	      0.25000000	     31.28716351	    -10.70762861	    -12.24955295	     28.59586883	      0.49909206	    -19.43218584	     -6.73196731	      0.00000000	      0.00000000	     80.00016352	      4.03627614	      4.42983749	    114.29971079	      1.99490629	      3.83684496	     -8.22134637	      0.00000000	      0.00000000	    -55.82532847	      0.44987376	     -8.48135235	     53.93502352	    -13.66663434	     22.37246735	     65.19903742	     46.80103888	      0.00000000	      0.00000000	     55.22858673	    -20.77051799	     25.09143975	     70.62850466	     48.06908687	      0.00000000	      0.00000000
      2.56000000	    -21.29092283	      2.74016484	      7.00280396	      0.32217714	      1.12288376	     -0.26900317	      0.00000000	      0.50000000	      0.00000000	      0.25000000	     31.04992402	    -10.89664901	    -12.58480249	     28.04766266	      0.48952406	    -20.44501845	     -6.54469891	      0.00000000	      0.00000000	     80.56844225	      4.15274120	      4.18484344	    113.95691739	      1.98892341	      4.23118954	     -8.27701613	      0.00000000	      0.00000000	    -55.76725954	      0.24350549	     -8.64681628	     54.01086573	    -13.76114997	     22.20584892	     64.87682125	     46.74718917	      0.00000000	      0.00000000	     55.41957038	    -20.63147244	     25.33833724	     70.77928815	     48.12365930	      0.00000000	      0.00000000
      2.56500000	    -21.52208726	      2.83147350	      7.14624944	      0.32157144	      1.12454794	     -0.26971821	      0.00000000	      0.50000000	      0.00000000	      0.25000000	     30.79763226	    -11.08972564	    -12.83807871	     27.52950468	      0.48048050	    -21.52602381	     -6.46910792	      0.00000000	      0.00000000	     81.03666639	      4.28656128	      3.89705168	    113.50745459	      1.98107881	      4.77725582	     -8.18444481	      0.00000000	      0.00000000	    -55.85565581	      0.01124275	     -8.83723867	     54.24323704	    -13.80408963	     21.99009592	     64.46606374	     46.67753964	      0.00000000	      0.00000000	     55.79134224	    -20.51649620	     25.64104483	     70.96149639	     48.18915799	      0.00000000	      0.00000000
